# xmcd
#
# Track frame offsets:
#	293
#	20666
#	39626
#	56202
#	73572
#	88199
#	105890
#	121954
#	139734
#	151047
#	168918
#	181062
#
# Disc length: 2596 seconds
#
# Revision: 0
# Processed by: cddbd v1.5.1PL2 Copyright (c) Steve Scherf et al.
# Submitted via: audiograbber 1.81.02
#
DISCID=970a210c
DTITLE=Michael Card - THE ULTIMATE COLLECTION Disk2
DYEAR=2006
DGENRE=Ballad
TTITLE0=El Shaddai
TTITLE1=Come To The Table
TTITLE2=Why?
TTITLE3=Known By The Scars
TTITLE4=God`s Own Fool
TTITLE5=Scandalon
TTITLE6=The Final Word
TTITLE7=Immanuel
TTITLE8=Dreaming Jacob`s Dream
TTITLE9=To The Mystery
TTITLE10=That`s What Faith Must Be
TTITLE11=Joy In The Journey
EXTD=
EXTT0=
EXTT1=
EXTT2=
EXTT3=
EXTT4=
EXTT5=
EXTT6=
EXTT7=
EXTT8=
EXTT9=
EXTT10=
EXTT11=
PLAYORDER=
